<svg xmlns="http://www.w3.org/2000/svg" version="1.1" xmlns:xlink="http://www.w3.org/1999/xlink" xmlns:svgjs="http://svgjs.dev/svgjs" width="2000" height="2250" viewBox="0 0 2000 2250"><g transform="matrix(1,0,0,1,0,0)"><svg viewBox="0 0 320 360" data-background-color="#000000" preserveAspectRatio="xMidYMid meet" height="2250" width="2000" xmlns="http://www.w3.org/2000/svg" xmlns:xlink="http://www.w3.org/1999/xlink"><g id="tight-bounds" transform="matrix(1,0,0,1,0,0)"><svg viewBox="0 0 320 360" height="360" width="320"><g><svg></svg></g><g><svg viewBox="0 0 320 360" height="360" width="320"><g><path xmlns="http://www.w3.org/2000/svg" d="M297.491 100.645c-12.426-21.51-112.674-79.355-137.491-79.355-24.817 0-125.028 57.845-137.491 79.355-11.591 20.02-11.591 138.726 0 158.746 12.463 21.474 112.674 79.319 137.491 79.319 24.817 0 125.064-57.845 137.491-79.355 11.591-20.02 11.591-138.69 0-158.71zM309.481 93.705c-14.461-24.998-119.469-86.295-149.481-86.295-30.012 0-135.02 61.297-149.481 86.295-14.025 24.199-14.025 148.391 0 172.59 14.461 24.998 119.469 86.295 149.481 86.295 30.012 0 135.02-61.297 149.481-86.259 14.025-24.235 14.025-148.427 0-172.626zM300.906 261.353c-12.753 22.055-115.472 81.317-140.906 81.318-25.434 0-128.153-59.298-140.906-81.354-11.881-20.529-11.881-142.178 0-162.707 12.753-22.019 115.472-81.281 140.906-81.281 25.434 0 128.153 59.298 140.906 81.318 11.881 20.529 11.881 142.178 0 162.706z" fill="#39ff14" fill-rule="nonzero" stroke="none" stroke-width="1" stroke-linecap="butt" stroke-linejoin="miter" stroke-miterlimit="10" stroke-dasharray="" stroke-dashoffset="0" font-family="none" font-weight="none" font-size="none" text-anchor="none" style="mix-blend-mode: normal" data-fill-palette-color="tertiary"></path></g><g transform="matrix(1,0,0,1,48,91.81305360656356)"><svg viewBox="0 0 224 176.3738927868729" height="176.3738927868729" width="224"><g><svg viewBox="0 0 224 176.3738927868729" height="176.3738927868729" width="224"><g><svg viewBox="0 0 224 176.3738927868729" height="176.3738927868729" width="224"><g><svg viewBox="0 0 224 176.3738927868729" height="176.3738927868729" width="224"><g><svg viewBox="0 0 224 138.51988265029235" height="138.51988265029235" width="224"><rect width="224" height="138.51988265029235" x="0" y="0" opacity="1" fill="#39ff14" data-fill-palette-color="tertiary"></rect><g transform="matrix(1,0,0,1,17.083765800000002,17.083765799999995)"><svg width="189.83246839999998" viewBox="4.579999923706055 -33.27000045776367 60.50999450683594 33.27000045776367" height="104.35235105029236" data-palette-color="#000000"><path d="M26.82-28.97Q31.12-24.67 31.12-16.68 31.12-8.7 26.66-4.35 22.19 0 13.78 0L13.78 0 4.58 0 4.58-33.27 14.76-33.27Q22.52-33.27 26.82-28.97ZM8.44-3.34L13.14-3.34Q20.05-3.34 23.53-6.74 27.02-10.14 27.02-16.72 27.02-23.31 23.76-26.61 20.5-29.9 14.05-29.9L14.05-29.9 8.44-29.9 8.44-3.34ZM60.79-28.97Q65.09-24.67 65.09-16.68 65.09-8.7 60.63-4.35 56.17 0 47.75 0L47.75 0 38.55 0 38.55-33.27 48.73-33.27Q56.49-33.27 60.79-28.97ZM42.41-3.34L47.12-3.34Q54.02-3.34 57.51-6.74 60.99-10.14 60.99-16.72 60.99-23.31 57.73-26.61 54.47-29.9 48.03-29.9L48.03-29.9 42.41-29.9 42.41-3.34Z" opacity="1" transform="matrix(1,0,0,1,0,0)" fill="#000000" class="undefined-text-0" data-fill-palette-color="quaternary" id="text-0"></path></svg></g></svg></g><g transform="matrix(1,0,0,1,0,147.06176555029234)"><svg viewBox="0 0 224 29.312127236580523" height="29.312127236580523" width="224"><g transform="matrix(1,0,0,1,0,0)"><svg width="224" viewBox="4.579999923706055 -35.38999938964844 355.9800109863281 46.59000015258789" height="29.312127236580523" data-palette-color="#000000"><path d="M26.82-28.97Q31.12-24.67 31.12-16.68 31.12-8.7 26.66-4.35 22.19 0 13.78 0L13.78 0 4.58 0 4.58-33.27 14.76-33.27Q22.52-33.27 26.82-28.97ZM8.44-3.34L13.14-3.34Q20.05-3.34 23.53-6.74 27.02-10.14 27.02-16.72 27.02-23.31 23.76-26.61 20.5-29.9 14.05-29.9L14.05-29.9 8.44-29.9 8.44-3.34ZM41.48-29.82Q40.85-29.17 39.86-29.17 38.88-29.17 38.27-29.82 37.66-30.46 37.66-31.7 37.66-32.94 38.27-33.57 38.88-34.2 39.86-34.2 40.85-34.2 41.48-33.56 42.11-32.91 42.11-31.69 42.11-30.46 41.48-29.82ZM37.97-24.92L41.76-24.92 41.76 0 37.97 0 37.97-24.92ZM60.28 0.46L60.28 0.46Q54.75 0.46 51.54-2.91L51.54-2.91Q48.35-6.27 48.35-12.29 48.35-18.3 51.31-21.84L51.31-21.84Q54.32-25.38 59.16-25.38 64-25.38 66.73-22.3 69.46-19.21 69.46-14.18L69.46-14.18 69.46-11.78 52.27-11.78Q52.4-7.41 54.49-5.12 56.59-2.83 60.55-2.83 64.5-2.83 68.37-4.52L68.37-4.52 68.37-1.16Q66.43-0.3 64.61 0.08 62.79 0.46 60.28 0.46ZM52.37-14.86L65.41-14.86Q65.41-18.43 63.82-20.32 62.23-22.22 59.26-22.22 56.29-22.22 54.48-20.27 52.67-18.33 52.37-14.86L52.37-14.86ZM83.99-22.62L83.99-22.62Q81.29-22.62 79.87-21.18 78.46-19.74 78.46-17.05 78.46-14.36 79.92-13.01 81.39-11.65 84.04-11.65L84.04-11.65Q89.58-11.65 89.58-17.01L89.58-17.01Q89.58-22.62 83.99-22.62ZM87.68-24.92L96.3-24.92 96.3-22.55 91.68-21.99Q93.32-19.94 93.32-17.01L93.32-17.01Q93.32-13.35 90.82-11.15L90.82-11.15Q88.29-8.97 83.94-8.97L83.94-8.97Q82.9-8.97 81.84-9.18L81.84-9.18Q79.44-7.89 79.44-5.97L79.44-5.97Q79.44-4.9 80.29-4.44 81.14-3.97 83.16-3.97L83.16-3.97 87.58-3.97Q91.63-3.97 93.8-2.26 95.97-0.56 95.97 2.7L95.97 2.7Q95.97 6.85 92.65 9.02 89.33 11.2 82.96 11.2L82.96 11.2Q78.08 11.2 75.42 9.38 72.77 7.56 72.77 4.22L72.77 4.22Q72.77 1.92 74.23 0.28 75.7-1.37 78.33-1.95L78.33-1.95Q77.32-2.4 76.7-3.31 76.08-4.22 76.08-5.5 76.08-6.77 76.79-7.79 77.5-8.8 79.09-9.78L79.09-9.78Q77.17-10.57 75.93-12.49L75.93-12.49Q74.71-14.41 74.71-16.86L74.71-16.86Q74.71-20.96 77.18-23.17 79.64-25.38 84.14-25.38L84.14-25.38Q86.09-25.38 87.68-24.92L87.68-24.92ZM86.37-0.56L81.84-0.56Q79.26-0.56 77.84 0.68 76.41 1.92 76.41 4.07L76.41 4.07Q76.41 8.32 83.01 8.32L83.01 8.32Q87.66 8.32 90 6.93 92.33 5.54 92.33 3.03L92.33 3.03Q92.33 1.04 91.08 0.24 89.83-0.56 86.37-0.56L86.37-0.56ZM103.09-21.99Q106.16-25.38 111.47-25.38 116.77-25.38 119.86-21.9 122.94-18.43 122.94-12.42 122.94-6.42 119.86-2.96L119.86-2.96Q116.77 0.46 111.39 0.46L111.39 0.46Q106.31 0.51 103.12-3.06 99.94-6.62 100.02-12.49L100.02-12.49Q100.02-18.6 103.09-21.99ZM111.42-22.17L111.42-22.17Q103.93-22.17 103.93-12.49L103.93-12.49Q103.93-7.71 105.84-5.21 107.75-2.7 111.47-2.7 115.18-2.7 117.1-5.19 119.02-7.68 119.02-12.47 119.02-17.26 117.1-19.72 115.18-22.17 111.42-22.17ZM165.81-28.97Q170.11-24.67 170.11-16.68 170.11-8.7 165.64-4.35 161.18 0 152.77 0L152.77 0 143.56 0 143.56-33.27 153.75-33.27Q161.51-33.27 165.81-28.97ZM147.43-3.34L152.13-3.34Q159.03-3.34 162.52-6.74 166.01-10.14 166.01-16.72 166.01-23.31 162.75-26.61 159.49-29.9 153.04-29.9L153.04-29.9 147.43-29.9 147.43-3.34ZM187.5 0.46L187.5 0.46Q181.96 0.46 178.75-2.91L178.75-2.91Q175.56-6.27 175.56-12.29 175.56-18.3 178.52-21.84L178.52-21.84Q181.53-25.38 186.37-25.38 191.21-25.38 193.94-22.3 196.67-19.21 196.67-14.18L196.67-14.18 196.67-11.78 179.48-11.78Q179.61-7.41 181.71-5.12 183.8-2.83 187.76-2.83 191.72-2.83 195.58-4.52L195.58-4.52 195.58-1.16Q193.64-0.3 191.82 0.08 190 0.46 187.5 0.46ZM179.58-14.86L192.63-14.86Q192.63-18.43 191.03-20.32 189.44-22.22 186.47-22.22 183.5-22.22 181.69-20.27 179.89-18.33 179.58-14.86L179.58-14.86ZM221.49-24.92L212.04 0 207.61 0 198.16-24.92 202.2-24.92 207.59-10.14Q209.41-4.9 209.71-3.41L209.71-3.41 209.89-3.41Q210.17-4.65 211.32-7.94 212.47-11.22 217.45-24.92L217.45-24.92 221.49-24.92ZM236.02 0.46L236.02 0.46Q230.49 0.46 227.28-2.91L227.28-2.91Q224.09-6.27 224.09-12.29 224.09-18.3 227.05-21.84L227.05-21.84Q230.06-25.38 234.9-25.38 239.74-25.38 242.47-22.3 245.2-19.21 245.2-14.18L245.2-14.18 245.2-11.78 228.01-11.78Q228.14-7.41 230.24-5.12 232.33-2.83 236.29-2.83 240.25-2.83 244.11-4.52L244.11-4.52 244.11-1.16Q242.17-0.3 240.35 0.08 238.53 0.46 236.02 0.46ZM228.11-14.86L241.16-14.86Q241.16-18.43 239.56-20.32 237.97-22.22 235-22.22 232.03-22.22 230.22-20.27 228.42-18.33 228.11-14.86L228.11-14.86ZM251.62-35.39L255.41-35.39 255.41 0 251.62 0 251.62-35.39ZM265.08-21.99Q268.15-25.38 273.46-25.38 278.76-25.38 281.85-21.9 284.93-18.43 284.93-12.42 284.93-6.42 281.85-2.96L281.85-2.96Q278.76 0.46 273.38 0.46L273.38 0.46Q268.3 0.51 265.11-3.06 261.93-6.62 262-12.49L262-12.49Q262-18.6 265.08-21.99ZM273.41-22.17L273.41-22.17Q265.92-22.17 265.92-12.49L265.92-12.49Q265.92-7.71 267.83-5.21 269.74-2.7 273.46-2.7 277.17-2.7 279.09-5.19 281.01-7.68 281.01-12.47 281.01-17.26 279.09-19.72 277.17-22.17 273.41-22.17ZM307.74-5.31Q309.58-7.91 309.58-12.54 309.58-17.16 307.76-19.67 305.94-22.17 302.6-22.17L302.6-22.17Q298.81-22.17 297.09-20.07 295.37-17.97 295.32-13.32L295.32-13.32 295.32-12.49Q295.32-7.23 297.06-4.97 298.81-2.7 302.67-2.7L302.67-2.7Q305.91-2.7 307.74-5.31ZM310.79-21.99Q313.49-18.6 313.49-12.46 313.49-6.32 310.75-2.93 308.01 0.46 302.99 0.46 297.97 0.46 295.32-3.21L295.32-3.21 295.04-3.21Q295.32-0.91 295.32 0.94L295.32 0.94 295.32 11.2 291.53 11.2 291.53-24.92 294.61-24.92 295.14-21.51 295.32-21.51Q298.05-25.38 303.07-25.38 308.08-25.38 310.79-21.99ZM330.6 0.46L330.6 0.46Q325.07 0.46 321.86-2.91L321.86-2.91Q318.67-6.27 318.67-12.29 318.67-18.3 321.63-21.84L321.63-21.84Q324.64-25.38 329.48-25.38 334.32-25.38 337.05-22.3 339.78-19.21 339.78-14.18L339.78-14.18 339.78-11.78 322.59-11.78Q322.72-7.41 324.82-5.12 326.91-2.83 330.87-2.83 334.83-2.83 338.69-4.52L338.69-4.52 338.69-1.16Q336.75-0.3 334.93 0.08 333.11 0.46 330.6 0.46ZM322.69-14.86L335.74-14.86Q335.74-18.43 334.14-20.32 332.55-22.22 329.58-22.22 326.61-22.22 324.8-20.27 323-18.33 322.69-14.86L322.69-14.86ZM357.57-25.38L357.57-25.38Q359.29-25.38 360.56-25.13L360.56-25.13 360.05-21.61Q358.56-21.94 357.32-21.94L357.32-21.94Q354.29-21.94 352.14-19.49 349.99-17.04 349.99-13.37L349.99-13.37 349.99 0 346.2 0 346.2-24.92 349.33-24.92 349.76-20.32 349.94-20.32Q351.33-22.78 353.29-24.08 355.25-25.38 357.57-25.38Z" opacity="1" transform="matrix(1,0,0,1,0,0)" fill="#000000" class="undefined-text-1" data-fill-palette-color="quaternary" id="text-1"></path></svg></g></svg></g></svg></g></svg></g></svg></g></svg></g></svg></g><defs></defs></svg><rect width="320" height="360" fill="none" stroke="none" visibility="hidden"></rect></g></svg></g></svg>